<?xml version="1.0" encoding="utf-8"?>
<!-- Generator: Adobe Illustrator 18.1.1, SVG Export Plug-In . SVG Version: 6.00 Build 0)  -->
<svg version="1.1" id="Capa_1" xmlns="http://www.w3.org/2000/svg" xmlns:xlink="http://www.w3.org/1999/xlink" x="0px" y="0px"
	 viewBox="370.9 247.6 100 100" enable-background="new 370.9 247.6 100 100" xml:space="preserve">
<g>
	<path fill="#FFA901" d="M430.7,304.2c-0.2-1.1-1-1.9-2.1-2.3l-4.2-1.2v-1.2c0.5-0.6,0.9-1.2,1-2c1.1-0.2,1.9-1.2,1.9-2.3v-3
		c0-3.6-2.9-6.5-6.5-6.5c-3.6,0-6.5,2.9-6.5,6.5v3c0,1.2,0.8,2.1,1.9,2.3c0.2,0.7,0.6,1.4,1,2v1.2l-4.2,1.2
		c-1.1,0.3-1.8,1.2-2.1,2.3l-1,5.2h21.6L430.7,304.2z M418.6,300.5c0.7,0.4,1.5,0.6,2.4,0.6s1.7-0.2,2.4-0.6v0.3l-2.4,1.4l-2.4-1.4
		V300.5z M424,301.8l0.5,0.2v1.3l-1.2,1.2l-1.4-1.4L424,301.8z M420.9,300c-2,0-3.6-1.6-3.6-3.6v-1.9l2.4-0.8v0.9h0.6
		c1.4,0,2.8-0.3,4.2-0.9v2.6C424.5,298.4,422.9,300,420.9,300z M425.7,296.3v-2.1c0.3,0.2,0.6,0.6,0.6,1S426,296.1,425.7,296.3z
		 M420.9,287c3,0,5.3,2.4,5.3,5.3v0.9c-0.2-0.1-0.4-0.2-0.6-0.3v-0.7h-1.2v0.2c-1.1,0.6-2.3,0.9-3.6,0.9v-1.4l-3.6,1.2v-1h-1.2v0.7
		c-0.2,0-0.4,0.1-0.6,0.3v-0.9C415.6,289.4,418,287,420.9,287z M415.6,295.3c0-0.4,0.2-0.8,0.6-1v2.1
		C415.8,296.1,415.6,295.7,415.6,295.3z M417.9,301.8l2.1,1.2l-1.4,1.4l-1.2-1.2V302L417.9,301.8z M426.8,308.3l-0.5-3.6l-1.2,0.2
		l0.5,3.5h-9.3l0.5-3.5l-1.2-0.2l-0.5,3.6h-3.5l0.8-3.8c0.1-0.6,0.6-1.2,1.2-1.4l2.6-0.8v1.5l2.4,2.4l2.4-2.4l2.4,2.4l2.4-2.4v-1.5
		l2.6,0.8c0.6,0.2,1.1,0.7,1.2,1.4l0.8,3.8H426.8L426.8,308.3z"/>
	<g>
		<path fill="#FFA901" d="M453.1,286.7c-0.5-1.4-1-2.8-1.7-4.1l6.3-9.4l-12.3-12.3l-9.4,6.3c-1.3-0.6-2.7-1.2-4.1-1.7l-2.2-11.1
			h-17.5l-2.2,11.1c-1.4,0.5-2.8,1-4.1,1.7l-9.4-6.3l-12.3,12.3l6.3,9.4c-0.6,1.3-1.2,2.7-1.7,4.1l-11.1,2.2v17.5l11.1,2.2
			c0.5,1.4,1,2.8,1.7,4.1l-6.3,9.4l12.4,12.3l9.4-6.3c1.3,0.6,2.7,1.2,4.1,1.7l2.2,11.1h17.5l2.2-11.1c1.4-0.5,2.8-1,4.1-1.7
			l9.4,6.3l12.4-12.3l-6.3-9.4c0.6-1.3,1.2-2.7,1.7-4.1l11.1-2.2v-17.5L453.1,286.7z M458.1,301.3l-9.8,2l-0.5,1.8
			c-0.6,2.2-1.5,4.3-2.6,6.2l-0.9,1.7l5.6,8.3l-5.2,5.2l-8.3-5.6l-1.7,0.9c-1.9,1.1-4,2-6.2,2.6l-1.8,0.5l-2,9.8h-7.3l-2-9.8
			l-1.8-0.5c-2.2-0.6-4.3-1.5-6.2-2.6l-1.7-0.9l-8.3,5.6l-5.2-5.2l5.6-8.3l-0.9-1.7c-1.1-2-2-4.1-2.6-6.2l-0.5-1.8l-9.8-2V294l9.8-2
			l0.5-1.8c0.6-2.2,1.5-4.3,2.6-6.2l0.9-1.7l-5.6-8.3l5.2-5.2l8.3,5.6l1.7-0.9c1.9-1.1,4-2,6.2-2.6l1.8-0.5l2-9.8h7.3l2,9.8l1.8,0.5
			c2.2,0.6,4.3,1.5,6.2,2.6l1.7,0.9l8.3-5.6l5.2,5.2l-5.6,8.3l0.9,1.7c1.1,2,2,4.1,2.6,6.2l0.5,1.8l9.8,2V301.3z"/>
		<path fill="#FFA901" d="M420.9,276c-11.9,0-21.7,9.7-21.7,21.7s9.7,21.7,21.7,21.7c11.9,0,21.7-9.7,21.7-21.7S432.9,276,420.9,276
			z M420.9,313.1c-8.5,0-15.5-6.9-15.5-15.5s6.9-15.5,15.5-15.5c8.5,0,15.5,6.9,15.5,15.5S429.5,313.1,420.9,313.1z"/>
	</g>
</g>
</svg>
