<?xml version="1.0" encoding="utf-8"?>
<!-- Generator: Adobe Illustrator 18.1.1, SVG Export Plug-In . SVG Version: 6.00 Build 0)  -->
<svg version="1.1" id="Capa_1" xmlns="http://www.w3.org/2000/svg" xmlns:xlink="http://www.w3.org/1999/xlink" x="0px" y="0px"
	 viewBox="370.9 247.6 100 100" enable-background="new 370.9 247.6 100 100" xml:space="preserve">
<g>
	<g>
		<path fill="#FFA901" d="M381.6,314.5h10.5c0.2-3.7,1.1-7.2,2.7-10.3l-9.7-5.8C382.9,303.3,381.6,308.8,381.6,314.5L381.6,314.5z"
			/>
		<path fill="#FFA901" d="M427.1,275.7l-2,15.2c3.9,1.1,7.5,3.2,10.4,5.9l11.9-11.4C441.8,280.4,434.9,276.9,427.1,275.7z"/>
		<path fill="#FFA901" d="M387.2,294.3l10,6c2.2-2.9,5-5.4,8.2-7.2l-7.5-10.5C393.6,285.8,390,289.7,387.2,294.3L387.2,294.3z"/>
		<path fill="#FFA901" d="M450.6,288.7l-12,11.5c3,4,4.9,9,5.2,14.3h16.5C460.3,304.6,456.6,295.6,450.6,288.7L450.6,288.7z"/>
		<path fill="#FFA901" d="M420.6,290l2-14.8c-0.5,0-1.1,0-1.6,0c-6.9,0-13.5,1.8-19.1,5l8,11c2.6-0.9,5.3-1.3,8.2-1.3
			C418.8,289.9,419.7,290,420.6,290L420.6,290z"/>
		<path fill="#FFA901" d="M413.9,313c0,3.9,3.2,7.1,7.1,7.1c3.9,0,7.1-3.2,7.1-7.1s-7.1-22-7.1-22S413.9,309.1,413.9,313z"/>
	</g>
</g>
</svg>
