<?xml version="1.0" encoding="utf-8"?>
<!-- Generator: Adobe Illustrator 18.1.1, SVG Export Plug-In . SVG Version: 6.00 Build 0)  -->
<svg version="1.1" id="Capa_1" xmlns="http://www.w3.org/2000/svg" xmlns:xlink="http://www.w3.org/1999/xlink" x="0px" y="0px"
	 viewBox="370.9 240.9 100 101" enable-background="new 370.9 240.9 100 101" xml:space="preserve">
<g>
	<g>
		<g>
			<path fill="#FFA901" d="M464.9,289.6l-9.6-6.8c-1.7-1.2-4.2,0-4.2,2.2v4.2h-46.3c-1.5,0-2.6,1.2-2.6,2.6c0,1.5,1.2,2.6,2.6,2.6
				h46.3v4.2c0,2.2,2.4,3.4,4.2,2.2l9.6-6.8C466.4,292.9,466.4,290.7,464.9,289.6z"/>
		</g>
	</g>
	<g>
		<g>
			<path fill="#FFA901" d="M451.7,308.8c-1.3-0.7-2.9-0.3-3.6,1c-6.2,10.7-17.8,17.9-31.1,17.9c-19.8,0-35.9-16.1-35.9-35.9
				c0-19.8,16.1-35.9,35.9-35.9c13.3,0,24.9,7.2,31.1,17.9c0.7,1.3,2.3,1.7,3.6,1c1.3-0.7,1.7-2.3,1-3.6
				c-7.1-12.3-20.5-20.6-35.6-20.6c-22.7,0-41.1,18.4-41.1,41.1c0,22.7,18.4,41.1,41.1,41.1c15.2,0,28.5-8.2,35.6-20.6
				C453.4,311.1,452.9,309.5,451.7,308.8z"/>
		</g>
	</g>
	<g>
	</g>
	<g>
	</g>
	<g>
	</g>
	<g>
	</g>
	<g>
	</g>
	<g>
	</g>
	<g>
	</g>
	<g>
	</g>
	<g>
	</g>
	<g>
	</g>
	<g>
	</g>
	<g>
	</g>
	<g>
	</g>
	<g>
	</g>
	<g>
	</g>
</g>
</svg>
