<?xml version="1.0" encoding="utf-8"?>
<!-- Generator: Adobe Illustrator 18.1.1, SVG Export Plug-In . SVG Version: 6.00 Build 0)  -->
<svg version="1.1" id="Capa_1" xmlns="http://www.w3.org/2000/svg" xmlns:xlink="http://www.w3.org/1999/xlink" x="0px" y="0px"
	 viewBox="370.9 247.6 100 100" enable-background="new 370.9 247.6 100 100" xml:space="preserve">
<g>
	<path fill="#FFA901" d="M429.8,274.2c3.9,2.4,6.7,6.7,7.2,11.5c1.6,0.7,3.4,1.2,5.3,1.2c6.9,0,12.5-5.6,12.5-12.5
		s-5.6-12.5-12.5-12.5C435.4,261.9,429.9,267.4,429.8,274.2z M421.6,299.7c6.9,0,12.5-5.6,12.5-12.5s-5.6-12.5-12.5-12.5
		s-12.5,5.6-12.5,12.5S414.7,299.7,421.6,299.7z M426.8,300.6h-10.6c-8.8,0-15.9,7.2-15.9,15.9v13v0.2l0.8,0.3
		c8.4,2.7,15.7,3.5,21.8,3.5c11.8,0,18.6-3.4,19-3.6l0.8-0.4h0.1v-12.8C442.8,307.8,435.6,300.6,426.8,300.6z M447.5,287.7H437
		c-0.1,4.2-1.9,8-4.8,10.7c7.9,2.3,13.6,9.6,13.6,18.2v4c10.4-0.4,16.4-3.3,16.8-3.5l0.8-0.4h0.1v-12.9
		C463.4,294.9,456.3,287.7,447.5,287.7z M399.6,286.9c2.4,0,4.7-0.7,6.7-1.9c0.6-4,2.8-7.4,5.8-9.9c0-0.2,0-0.4,0-0.7
		c0-6.9-5.6-12.5-12.5-12.5s-12.5,5.6-12.5,12.5C387.2,281.2,392.7,286.9,399.6,286.9z M410.9,298.4c-2.9-2.8-4.6-6.5-4.8-10.6
		c-0.4,0-0.7-0.1-1.2-0.1h-10.6c-8.8,0-15.9,7.2-15.9,15.9v13v0.2l0.8,0.3c6.8,2.1,12.8,3.1,18,3.4v-3.9
		C397.3,308,403,300.8,410.9,298.4z"/>
</g>
</svg>
