<?xml version="1.0" encoding="utf-8"?>
<!-- Generator: Adobe Illustrator 18.1.1, SVG Export Plug-In . SVG Version: 6.00 Build 0)  -->
<svg version="1.1" id="Capa_1" xmlns="http://www.w3.org/2000/svg" xmlns:xlink="http://www.w3.org/1999/xlink" x="0px" y="0px"
	 viewBox="123.3 79.1 595.3 437.2" enable-background="new 123.3 79.1 595.3 437.2" xml:space="preserve">
<g>
	<g>
		<g>
			<path fill="#BEBEBE" d="M648.8,79.1H193.1c-38.5,0-69.8,31.3-69.8,69.8v297.6c0,38.5,31.3,69.8,69.8,69.8h455.8
				c38.5,0,69.8-31.3,69.8-69.8V148.8C718.6,110.4,687.3,79.1,648.8,79.1z M672.1,446.5c0,12.8-10.4,23.3-23.3,23.3H193.1
				c-12.8,0-23.3-10.4-23.3-23.3V148.8c0-12.8,10.4-23.3,23.3-23.3h455.8c12.8,0,23.3,10.4,23.3,23.3V446.5z"/>
		</g>
	</g>
	<g>
		<g>
			<polygon fill="#BEBEBE" points="668.1,108.1 420.9,291.9 173.8,108.1 146,145.4 420.9,349.9 695.9,145.4 			"/>
		</g>
	</g>
</g>
</svg>
