<?xml version="1.0" encoding="utf-8"?>
<!-- Generator: Adobe Illustrator 18.1.1, SVG Export Plug-In . SVG Version: 6.00 Build 0)  -->
<svg version="1.1" id="Capa_1" xmlns="http://www.w3.org/2000/svg" xmlns:xlink="http://www.w3.org/1999/xlink" x="0px" y="0px"
	 viewBox="155.6 9.3 530.6 576.7" enable-background="new 155.6 9.3 530.6 576.7" xml:space="preserve">
<g>
	<g>
		<g>
			<path fill="#FFA001" d="M630.5,28.6h-29V19c0-5.2-4.5-9.7-9.7-9.7c-5.2,0-9.7,4.5-9.7,9.7v9.7h-19.3V19c0-5.2-4.5-9.7-9.7-9.7
				c-5.2,0-9.7,4.5-9.7,9.7v9.7h-19.3V19c0-5.2-4.5-9.7-9.7-9.7c-5.2,0-9.7,4.5-9.7,9.7v9.7h-19.3V19c0-5.2-4.5-9.7-9.7-9.7
				c-5.2,0-9.7,4.5-9.7,9.7v9.7H329.5V19c0-5.2-4.5-9.7-9.7-9.7s-9.7,4.5-9.7,9.7v9.7h-19.3V19c0-5.2-4.5-9.7-9.7-9.7
				c-5.2,0-9.7,4.5-9.7,9.7v9.7h-19.3V19c0-5.2-4.5-9.7-9.7-9.7s-9.7,4.5-9.7,9.7v9.7h-19.3V19c0-5.2-4.5-9.7-9.7-9.7
				s-9.7,4.5-9.7,9.7v9.7h-29c-5.2,0-9.7,4.5-9.7,9.7v459.3c0,5.2,4.5,9.7,9.7,9.7h283.9c5.2,0,9.7-4.5,9.7-9.7v-0.7v-1.5
				c0-3-0.7-5.2-0.7-8.2c0-9.7,1.5-19.3,3.7-29s5.2-18.6,9.7-26.8c0.7-0.7,0.7-1.5,1.5-2.2c1.5-2.2,3-5.2,4.5-7.4
				c0.7-0.7,0.7-1.5,1.5-2.2c1.5-2.2,3-5.2,5.2-7.4c0-0.7,0.7-0.7,0.7-1.5c2.2-2.2,3.7-5.2,5.9-7.4l0,0
				c14.1-15.6,31.2-27.5,51.3-34.9l1.5-0.7c3-0.7,5.2-1.5,8.2-2.2c1.5,0,2.2-0.7,3.7-0.7c2.2-0.7,4.5-0.7,6.7-1.5
				c2.2,0,3.7-0.7,5.9-0.7c1.5,0,3.7-0.7,5.2-0.7c3.7,0,8.2-0.7,11.9-0.7c3,0,5.2,0,8.2,0.7h1.5l0,0c12.6,0.7,24.5,3.7,35.7,8.2
				c5.2,2.2,10.4-0.7,12.6-5.2c0.7-1.5,0.7-2.2,0.7-3.7V39C640.2,32.3,636.5,28.6,630.5,28.6z M455.1,413.6c0,0.7-0.7,0.7-0.7,1.5
				c-1.5,2.2-3,5.2-3.7,7.4c-0.7,1.5-1.5,3-2.2,4.5c-0.7,2.2-2.2,4.5-3,7.4v0.7v-45.3H473C466.3,397.2,460.3,405.4,455.1,413.6z
				 M503.4,363.8c-3.7,2.2-6.7,4.5-9.7,6.7l0,0h-49v-58.7h58.7V363.8z M503.4,291.7h-58.7V233h58.7V291.7z M503.4,213.7h-58.7V155
				h58.7V213.7z M582.2,233.7v58.7h-58.7v-58.7H582.2z M523.5,213.7V155h58.7v58.7H523.5z M582.2,340.7c-4.5,0-8.9,0-13.4,0.7
				c-2.2,0-3.7,0.7-5.9,0.7c-2.2,0-4.5,0.7-7.4,0.7c-2.2,0.7-5.2,0.7-7.4,1.5c-1.5,0-3,0.7-4.5,1.5c-3,0.7-5.9,1.5-8.9,3
				c0,0-0.7,0-0.7,0.7c-3.7,1.5-7.4,2.2-10.4,3.7v-41.6h58.7V340.7L582.2,340.7z M620.9,345.9c-6.7-1.5-12.6-3-19.3-3.7V145.3
				c0-5.2-4.5-9.7-9.7-9.7H201c-5.2,0-9.7,4.5-9.7,9.7v312.9c0,5.2,4.5,9.7,9.7,9.7h235.6c-0.7,6.7-1.5,12.6-1.5,19.3H171.2V116.3
				h448.9v229.6H620.9z M367.4,369.7V311h58.7v58.7H367.4z M425.4,389.8v58.7h-58.7v-58.7H425.4z M367.4,291.7V233h58.7v58.7H367.4z
				 M367.4,213.7V155h58.7v58.7H367.4z M288.7,369.7V311h58.7v58.7H288.7z M347.4,389.8v58.7h-58.7v-58.7H347.4z M288.7,291.7V233
				h58.7v58.7H288.7z M288.7,213.7V155h58.7v58.7H288.7z M210.6,369.7V311h58.7v58.7H210.6z M269.3,389.8v58.7h-58.7v-58.7H269.3z
				 M210.6,291.7V233h58.7v58.7H210.6z M210.6,213.7V155h58.7v58.7H210.6z M620.9,97H172v-49h19.3v9.7c0,5.2,4.5,9.7,9.7,9.7
				s9.7-4.5,9.7-9.7v-9.7h19.3v9.7c0,5.2,4.5,9.7,9.7,9.7c5.2,0,9.7-4.5,9.7-9.7v-9.7h19.3v9.7c0,5.2,4.5,9.7,9.7,9.7
				s9.7-4.5,9.7-9.7v-9.7h19.3v9.7c0,5.2,4.5,9.7,9.7,9.7c5.2,0,9.7-4.5,9.7-9.7v-9.7h136.7v9.7c0,5.2,4.5,9.7,9.7,9.7
				c5.2,0,9.7-4.5,9.7-9.7v-9.7h19.3v9.7c0,5.2,4.5,9.7,9.7,9.7c5.2,0,9.7-4.5,9.7-9.7v-9.7h19.3v9.7c0,5.2,4.5,9.7,9.7,9.7
				s9.7-4.5,9.7-9.7v-9.7h19.3v9.7c0,5.2,4.5,9.7,9.7,9.7c5.2,0,9.7-4.5,9.7-9.7v-9.7h19.3v49H620.9z"/>
		</g>
	</g>
	<g>
		<g>
			<g>
				<path fill="#FFA001" d="M578.5,370.5c-59.5,0-107.8,48.3-107.8,107.8S519,586,578.5,586s107.8-48.3,107.8-107.8
					C685.5,418.8,638,370.5,578.5,370.5z M578.5,565.9c-48.3,0-87.7-39.4-87.7-87.7s39.4-87.7,87.7-87.7c48.3,0,87.7,39.4,87.7,87.7
					C666.2,526.5,626.8,565.9,578.5,565.9z"/>
			</g>
		</g>
		<g>
			<g>
				<path fill="#FFA001" d="M605.3,507.2c0,2.2-9.7,7.4-27.5,7.4c-17.8,0-27.5-5.9-27.5-7.4v-20.1l-10.4-5.9v25.3
					c0,11.9,18.6,17.8,37.9,17.8c18.6,0,37.9-5.9,37.9-17.8v-25.3l-10.4,5.9C605.3,487.1,605.3,507.2,605.3,507.2z"/>
				<path fill="#FFA001" d="M640.2,512.4l-5.9-19.3c1.5-1.5,2.2-3,2.2-5.2c0-3-2.2-5.2-4.5-5.9v-18.6l4.5-2.2c1.5-0.7,3-3,3-4.5
					c0-1.5-0.7-3.7-3-4.5L580,421.7c-1.5-0.7-3.7-0.7-5.2,0l-56.5,30.5c-1.5,0.7-3,3-3,4.5c0,1.5,0.7,3.7,3,4.5l56.5,30.5
					c0.7,0.7,1.5,0.7,2.2,0.7s1.5,0,2.2-0.7l47.6-26v15.6c-2.2,0.7-4.5,3.7-4.5,5.9c0,2.2,0.7,3.7,2.2,5.2l-5.9,19.3
					c-0.7,1.5,0,3.7,0.7,5.2c0.7,1.5,3,2.2,4.5,2.2h10.4c1.5,0,3.7-0.7,4.5-2.2C640.2,516.1,640.9,514.6,640.2,512.4z M577.8,481.2
					l-45.3-24.5l45.3-24.5l45.3,24.5L577.8,481.2z"/>
			</g>
		</g>
	</g>
</g>
</svg>
