<?xml version="1.0" encoding="utf-8"?>
<!-- Generator: Adobe Illustrator 18.1.1, SVG Export Plug-In . SVG Version: 6.00 Build 0)  -->
<svg version="1.1" id="Capa_1" xmlns="http://www.w3.org/2000/svg" xmlns:xlink="http://www.w3.org/1999/xlink" x="0px" y="0px"
	 viewBox="216.4 94.4 409 406.4" enable-background="new 216.4 94.4 409 406.4" xml:space="preserve">
<path fill="#BEBEBE" d="M617.8,460L510.4,352.6c-5.1-5.1-12.8-7.7-20.5-7.7c20.5-25.6,33.2-61.4,33.2-97.1
	c0-84.4-69-153.4-153.4-153.4s-153.4,69-153.4,153.4s69,153.4,153.4,153.4c35.8,0,71.6-12.8,97.1-35.8c0,7.7,0,15.3,7.7,20.5
	L582,493.2c5.1,5.1,12.8,7.7,17.9,7.7s12.8-2.6,17.9-7.7C628,485.5,628,470.2,617.8,460z M369.8,362.8c-63.9,0-115-51.1-115-115
	s51.1-115,115-115s115,51.1,115,115S433.7,362.8,369.8,362.8z"/>
</svg>
