<?xml version="1.0" encoding="utf-8"?>
<!-- Generator: Adobe Illustrator 18.1.1, SVG Export Plug-In . SVG Version: 6.00 Build 0)  -->
<svg version="1.1" id="Capa_1" xmlns="http://www.w3.org/2000/svg" xmlns:xlink="http://www.w3.org/1999/xlink" x="0px" y="0px"
	 viewBox="122.9 46.8 596 501.6" enable-background="new 122.9 46.8 596 501.6" xml:space="preserve">
<g>
	<path fill="#3F7AFC" d="M482.6,133.8c27.5,17.1,46.8,46.8,50.5,80.3c11.1,5.2,23.8,8.2,37.2,8.2c48.3,0,87.7-39.4,87.7-87.7
		s-39.4-87.7-87.7-87.7C522,47.6,483.4,86.2,482.6,133.8z M425.4,312.1c48.3,0,87.7-39.4,87.7-87.7s-39.4-87.7-87.7-87.7
		s-87.7,39.4-87.7,87.7S377.1,312.1,425.4,312.1z M461.8,318.1h-74.3c-61.7,0-111.5,50.5-111.5,111.5v90.7v1.5l5.9,2.2
		c58.7,18.6,110,24.5,152.4,24.5c82.5,0,130.1-23.8,133-25.3l5.9-3h0.7v-89.9C574,368.6,523.5,318.1,461.8,318.1z M606.7,228.2
		h-73.6c-0.7,29.7-13.4,55.7-33.4,75.1c55,16.3,95.1,66.9,95.1,127.1v28.2c72.8-3,114.4-23,117.4-24.5l5.9-3h0.7v-90.7
		C718.2,278.7,668.4,228.2,606.7,228.2z M271.6,222.2c17.1,0,32.7-5.2,46.8-13.4c4.5-28.2,19.3-52,40.9-69.1c0-1.5,0-3,0-5.2
		c0-48.3-39.4-87.7-87.7-87.7s-87.7,39.4-87.7,87.7C184.6,182.8,223.3,222.2,271.6,222.2z M350.3,303.2
		c-20.1-19.3-32-45.3-33.4-74.3c-3,0-5.2-0.7-8.2-0.7h-74.3c-61.7,0-111.5,50.5-111.5,111.5v90.7v1.5l5.9,2.2
		c47.6,14.9,89.2,21.6,125.6,23.8v-27.5C255.2,370.1,295.3,319.6,350.3,303.2z"/>
</g>
</svg>
