<?xml version="1.0" encoding="utf-8"?>
<!-- Generator: Adobe Illustrator 18.1.1, SVG Export Plug-In . SVG Version: 6.00 Build 0)  -->
<svg version="1.1" id="Capa_1" xmlns="http://www.w3.org/2000/svg" xmlns:xlink="http://www.w3.org/1999/xlink" x="0px" y="0px"
	 viewBox="147.6 24.1 546.7 547" enable-background="new 147.6 24.1 546.7 547" xml:space="preserve">
<g>
	<path fill="#FF0000" d="M689.2,195.9L577,304.4l-23-24.5l85.5-81.7c8.2-8.2,8.2-20.8,0.7-29l-75.8-78.8c-3.7-3.7-8.9-5.9-14.9-5.9
		c-5.2,0-10.4,2.2-14.9,5.9l-66.9,64.7l58,60.2c4.5,5.2,4.5,13.4-0.7,17.8c-3.7,3.7-8.9,4.5-12.6,3l-84.7-89.9l110.7-107
		c6.7-6.7,17.8-5.9,23.8,0.7l127.8,132.3C695.9,178.8,695.9,189.2,689.2,195.9z M307.2,517c-3.7,3.7-8.9,5.9-14.9,5.9
		c-5.2,0-10.4-2.2-14.9-5.9l-75.8-78.8c-8.2-8.2-7.4-21.6,0.7-29l34.9,36.4c4.5,5.2,12.6,5.2,17.8,0c5.2-4.5,5.2-12.6,0-17.8
		l-34.9-36.4l9.7-8.9l34.9,36.4c4.5,5.2,12.6,5.2,17.8,0c5.2-5.2,5.2-12.6,0-17.8l-34.9-36.4l9.7-8.9l34.9,36.4
		c4.5,5.2,12.6,5.2,17.8,0c5.2-4.5,5.2-12.6,0-17.8l-34.9-36.4l9.7-8.9l34.9,36.4c4.5,5.2,12.6,5.2,17.8,0c1.5-1.5,3-3.7,3.7-6.7
		l-64.7-68.4L152.6,410c-6.7,6.7-6.7,17.1,0,23.8L280.4,566c6.7,6.7,17.1,6.7,23.8,0.7l121.9-117.4l-23-24.5L307.2,517z
		 M530.9,191.5c-16.3-16.3-15.6-43.1,0.7-59.5s43.1-15.6,59.5,0.7s15.6,43.1-0.7,59.5C573.2,208.6,546.5,208.6,530.9,191.5z
		 M548.7,174.4c6.7,6.7,17.1,6.7,23.8,0.7c6.7-6.7,6.7-17.1,0.7-23.8c-6.7-6.7-17.1-6.7-23.8-0.7C542,156.5,542,167.7,548.7,174.4z
		 M616.4,389.1l-110,103.3L261.1,232.3l110-103.3L616.4,389.1z M389.7,201.9c0-2.2-0.7-5.2-3-6.7l-11.9-12.6
		c-3.7-3.7-9.7-3.7-13.4-0.7l-6.7,5.9c-3.7,3.7-3.7,9.7-0.7,13.4l11.9,12.6c1.5,1.5,4.5,3,6.7,3s13.4-8.9,13.4-8.9
		C388.9,207.1,389.7,204.1,389.7,201.9z M559.9,392.1c3.7-3.7,3.7-9.7,0.7-13.4L423.1,232.3c-1.5-2.2-3.7-3-6.7-3
		c-2.2,0-5.2,0.7-6.7,2.2l-6.7,5.9c-3.7,3.7-3.7,9.7-0.7,13.4l137.5,146.4c1.5,1.5,4.5,3,6.7,3s5.2-0.7,6.7-2.2L559.9,392.1z
		 M250,221.2l110-103.3l-28.2-30.5l-110,104L250,221.2z M172.7,138.7c-5.9-6.7-8.9-14.9-8.9-23.8s3.7-17.1,10.4-23l62.4-58.7
		c13.4-12.6,34.2-11.9,46.1,1.5l38.6,40.9l-110,103.3L172.7,138.7z M192.7,116.4l20.1,21.6l66.9-63.2l-20.1-21.6L192.7,116.4z
		 M672.1,537c2.2,5.9,0,12.6-4.5,17.1c-4.5,4.5-11.1,5.2-17.1,3l-130.8-49.8l110-103.3L672.1,537z M637.2,492.5l-16.3-52.8
		l-63.9,60.2l51.3,19.3L637.2,492.5z"/>
</g>
</svg>
