<?xml version="1.0" encoding="utf-8"?>
<!-- Generator: Adobe Illustrator 18.1.1, SVG Export Plug-In . SVG Version: 6.00 Build 0)  -->
<svg version="1.1" id="Capa_1" xmlns="http://www.w3.org/2000/svg" xmlns:xlink="http://www.w3.org/1999/xlink" x="0px" y="0px"
	 viewBox="151 21.9 536.7 551.4" enable-background="new 151 21.9 536.7 551.4" xml:space="preserve">
<g>
	<g>
		<g>
			<circle fill="#3CB878" cx="295.4" cy="71.7" r="45.3"/>
		</g>
	</g>
	<g>
		<g>
			<path fill="#3CB878" d="M434.3,319.2c0-0.7-35.7-98.1-51.3-143.4c-10.4-29-26.8-43.8-50.5-43.8c-1.5,0-2.2,0-3.7,0
				c5.9,5.9,10.4,12.6,12.6,20.8c11.1,3.7,19.3,14.9,19.3,27.5v65.4c15.6,43.1,32,88.4,32,89.2c4.5,11.1,16.3,17.1,28.2,12.6
				C432.8,342.2,438.8,330.3,434.3,319.2z"/>
		</g>
	</g>
	<g>
		<g>
			<path fill="#3CB878" d="M257.4,131.2c-23,0-40.1,14.9-50.5,43.8c-15.6,45.3-51.3,142.7-51.3,143.4c-4.5,11.1,1.5,23.8,12.6,28.2
				c11.1,4.5,23.8-1.5,28.2-12.6c0-0.7,17.1-46.1,32-89.2v-65.4c0-12.6,8.2-23,19.3-27.5c2.2-8.2,6.7-14.9,12.6-20.8
				C259.7,131.2,258.9,131.2,257.4,131.2z"/>
		</g>
	</g>
	<g>
		<g>
			<path fill="#3CB878" d="M381.6,375.7c-8.9-46.8-15.6-79.5-20.1-102.6v5.2c0,15.6-12.6,29-29,29h-75.1c-15.6,0-29-12.6-29-29v-5.2
				c-4.5,23-11.1,55.7-20.1,102.6c-1.5,7.4,4.5,14.1,11.9,14.1c4.5,0,10.4,0,16.3,0v157.6c0,14.1,11.9,26,26,26s26-11.9,26-26V389.8
				c3.7,0,7.4,0,11.1,0v157.6c0,14.1,11.9,26,26,26s26-11.9,26-26V389.8c5.9,0,11.9,0,16.3,0C377.1,390.5,383,383.1,381.6,375.7z"/>
		</g>
	</g>
	<g>
		<g>
			<path fill="#3CB878" d="M332.5,166.1H328c0-5.9-1.5-11.1-4.5-16.3c-5.9-9.7-16.3-16.3-28.2-16.3c-11.9,0-23,6.7-28.2,16.3
				c-3,4.5-4.5,10.4-4.5,16.3h-4.5c-6.7,0-12.6,5.9-12.6,12.6v98.8c0,6.7,5.9,12.6,12.6,12.6h75.1c6.7,0,12.6-5.9,12.6-12.6v-98.8
				C345.1,172,339.9,166.1,332.5,166.1z M291.6,149.7h7.4c7.4,1.5,12.6,8.2,12.6,16.3h-33.4C278.3,158.7,284.2,152,291.6,149.7z
				 M313.2,259.7h-34.9c-5.9,0-11.1-5.2-11.1-11.1c0-5.9,5.2-11.1,11.1-11.1h34.9c5.9,0,11.1,5.2,11.1,11.1
				C323.6,255.3,319.1,259.7,313.2,259.7z"/>
		</g>
	</g>
	<g>
		<g>
			<circle fill="#3CB878" cx="575.5" cy="67.3" r="45.3"/>
		</g>
	</g>
	<g>
		<g>
			<path fill="#3CB878" d="M687,178.7c0-28.2-23.8-51.3-52.8-51.3H606c7.4,5.9,13.4,14.1,16.3,23.8l0,0
				c11.9,4.5,20.8,15.6,20.8,29.7v159c0,11.9,9.7,22.3,22.3,22.3c11.9,0,22.3-9.7,22.3-22.3V178.7C687,178.7,687,178.7,687,178.7z"
				/>
		</g>
	</g>
	<g>
		<g>
			<path fill="#3CB878" d="M612.7,306.6h-75.1l0,0c-8.2,0-15.6-3.7-20.8-8.9c0,0,0,5.2,0,249.7c0,14.9,11.9,26,26,26
				c14.1,0,26-11.9,26-26V337H580v210.3c0,14.9,11.9,26,26,26c14.1,0,26-11.9,26-26c0-238.6,0-249.7,0-249.7
				C628.3,302.8,620.9,306.6,612.7,306.6z"/>
		</g>
	</g>
	<g>
		<g>
			<path fill="#3CB878" d="M516.1,126.7c-29,0-52.8,23-52.8,51.3l0,0v161.3c0,11.9,9.7,22.3,22.3,22.3c11.9,0,22.3-9.7,22.3-22.3
				V182.4c-1.5-14.9,7.4-28.2,20.8-32c3-9.7,8.9-17.8,16.3-23.8H516.1L516.1,126.7z"/>
		</g>
	</g>
	<g>
		<g>
			<path fill="#3CB878" d="M612.7,165.4h-4.5c0-5.9-1.5-11.1-4.5-16.3c-5.9-9.7-16.3-16.3-28.2-16.3c-11.9,0-23,6.7-28.2,16.3
				c-3,4.5-4.5,10.4-4.5,16.3h-4.5c-6.7,0-12.6,5.9-12.6,12.6v98.8c0,6.7,5.9,12.6,12.6,12.6h75.1c6.7,0,12.6-5.9,12.6-12.6V178
				C625.3,171.3,619.4,165.4,612.7,165.4z M571.1,149h7.4c7.4,1.5,12.6,8.2,12.6,16.3h-33.4C558.4,157.9,564.4,151.2,571.1,149z
				 M592.6,259h-34.9c-5.9,0-11.1-5.2-11.1-11.1c0-5.9,5.2-11.1,11.1-11.1h34.9c5.9,0,11.1,5.2,11.1,11.1
				C603.8,253.8,598.6,259,592.6,259z"/>
		</g>
	</g>
</g>
</svg>
