<?xml version="1.0" encoding="utf-8"?>
<!-- Generator: Adobe Illustrator 18.1.1, SVG Export Plug-In . SVG Version: 6.00 Build 0)  -->
<svg version="1.1" id="Capa_1" xmlns="http://www.w3.org/2000/svg" xmlns:xlink="http://www.w3.org/1999/xlink" x="0px" y="0px"
	 viewBox="370.9 247.6 100 100" enable-background="new 370.9 247.6 100 100" xml:space="preserve">
<g>
	<g>
		<path fill="#FFA901" d="M394.4,282.6c0.2,1.2,0.7,2,1.1,2.5c1.1,7.4,7.3,14.2,12.9,14.2c6.6,0,12.6-7.4,13.7-14.2
			c0.5-0.5,1-1.3,1.2-2.5c0.4-1.4,0.9-3.8,0-4.9c0-0.1-0.1-0.1-0.1-0.2c0.8-2.9,1.8-8.9-1.8-13c-0.3-0.4-2.3-2.8-6.6-4.1l-2.1-0.7
			c-3.4-1-5.5-1.3-5.6-1.3c-0.2,0-0.3,0-0.5,0c-0.1,0-0.5,0.1-0.8,0.1c-0.8-0.1-2,0.3-2.2,0.4c-0.3,0.1-6.8,2.7-8.8,8.8
			c-0.2,0.5-1,3.1,0.1,9.5c-0.2,0.1-0.3,0.2-0.4,0.4C393.5,278.9,394,281.3,394.4,282.6z"/>
		<path fill="#FFA901" d="M420.6,329.1c-1.2-0.7-2.5-1.3-3.9-2c-0.7-0.3-1.4-0.6-2.1-0.9c-0.5-0.2-1.2-0.5-1.6-0.6l-6.5-1.8
			l12.2-24.8l5.2,3.3c1.1,0.7,1.9,1.3,2.8,1.9l0.2,0.1c0.9,0.7,1.7,1.3,2.6,2c1.8,1.5,3.5,2.9,5,4.5c0.1,0.1,0.2,0.2,0.3,0.3
			c0.5-0.6,1-1.1,1.5-1.6c-0.6-1.9-1.4-3.6-2.4-5c0,0-1.3-1.8-4.5-3c0,0-0.3-0.1-0.7-0.2c-2.8-1.3-5.5-2.2-5.5-2.2
			c-0.6-0.2-1.1-0.4-1.5-0.6c-1.9-0.9-3.5-2-3.8-3c0,0,1.1,10.7-8.3,11l-1.3-0.1c-8.5-0.8-9.1-10.9-9.1-10.9c-0.9,2.8-11.6,6-11.6,6
			c-3.2,1.2-4.5,3-4.5,3c-4.7,7-5.2,22.4-5.2,22.4c0.1,3.5,1.6,3.9,1.6,3.9c10.8,4.8,27.7,5.7,27.7,5.7c0.9,0,1.8,0,2.6-0.1l0,0.1
			c0,0,8.3-0.4,16.9-2.3l-1.1-1.4C424.9,331.9,423,330.5,420.6,329.1z"/>
		<path fill="#FFA901" d="M417.5,296.1c0.1-0.1,0.2-0.3,0.4-0.5c0-0.1,0-0.1,0-0.1C417.8,295.7,417.6,295.9,417.5,296.1z"/>
		<path fill="#FFA901" d="M399.3,295.6l0-0.1L399.3,295.6C399.3,295.6,399.3,295.6,399.3,295.6C399.3,295.6,399.3,295.6,399.3,295.6
			z"/>
		<path fill="#FFA901" d="M454,300.6c-3.1,2.2-5.9,4.6-8.7,7.2c-2.7,2.6-5.3,5.3-7.8,8.2c-0.9,1.1-1.8,2.1-2.7,3.2c0,0,0,0,0,0
			c-1.3-1.8-2.7-3.3-4.2-4.8c-1.5-1.5-3-2.8-4.6-4.1c-0.8-0.6-1.6-1.3-2.4-1.9c-0.8-0.6-1.6-1.2-2.6-1.8l-6.5,13.2
			c0.6,0.2,1.5,0.5,2.2,0.8c0.8,0.3,1.5,0.6,2.3,0.9c1.5,0.7,3,1.4,4.4,2.2c2.8,1.6,5.4,3.5,6.9,5.4l5,6.5l2.9-6.2
			c1.4-3.1,3.2-6.4,4.9-9.5c1.8-3.1,3.7-6.2,5.8-9.1s4.3-5.8,6.8-8.4c2.5-2.6,5.2-5,8.5-6.8C460.4,296.6,457.1,298.5,454,300.6z"/>
	</g>
</g>
</svg>
