<?xml version="1.0" encoding="utf-8"?>
<!-- Generator: Adobe Illustrator 18.1.1, SVG Export Plug-In . SVG Version: 6.00 Build 0)  -->
<svg version="1.1" id="Capa_1" xmlns="http://www.w3.org/2000/svg" xmlns:xlink="http://www.w3.org/1999/xlink" x="0px" y="0px"
	 viewBox="370.9 247.6 100 100" enable-background="new 370.9 247.6 100 100" xml:space="preserve">
<g>
	<path fill="#FFA901" d="M460.2,282.7l-16.4,15.9l-3.4-3.6l12.5-12c1.2-1.2,1.2-3,0.1-4.3L442,267.3c-0.5-0.5-1.3-0.9-2.2-0.9
		c-0.8,0-1.5,0.3-2.2,0.9l-9.8,9.5l8.5,8.8c0.7,0.8,0.7,2-0.1,2.6c-0.5,0.5-1.3,0.7-1.8,0.4l-12.4-13.2l16.2-15.7
		c1-1,2.6-0.9,3.5,0.1l18.7,19.4C461.2,280.2,461.2,281.8,460.2,282.7z M404.3,329.8c-0.5,0.5-1.3,0.9-2.2,0.9
		c-0.8,0-1.5-0.3-2.2-0.9l-11.1-11.5c-1.2-1.2-1.1-3.2,0.1-4.3l5.1,5.3c0.7,0.8,1.8,0.8,2.6,0c0.8-0.7,0.8-1.8,0-2.6l-5.1-5.3
		l1.4-1.3l5.1,5.3c0.7,0.8,1.8,0.8,2.6,0c0.8-0.8,0.8-1.8,0-2.6l-5.1-5.3l1.4-1.3l5.1,5.3c0.7,0.8,1.8,0.8,2.6,0
		c0.8-0.7,0.8-1.8,0-2.6l-5.1-5.3l1.4-1.3l5.1,5.3c0.7,0.8,1.8,0.8,2.6,0c0.2-0.2,0.4-0.5,0.5-1l-9.5-10l-18.2,17.5
		c-1,1-1,2.5,0,3.5l18.7,19.4c1,1,2.5,1,3.5,0.1l17.9-17.2l-3.4-3.6L404.3,329.8z M437,282.1c-2.4-2.4-2.3-6.3,0.1-8.7
		c2.4-2.4,6.3-2.3,8.7,0.1c2.4,2.4,2.3,6.3-0.1,8.7C443.2,284.6,439.3,284.6,437,282.1z M439.7,279.6c1,1,2.5,1,3.5,0.1
		c1-1,1-2.5,0.1-3.5c-1-1-2.5-1-3.5-0.1C438.7,277,438.7,278.6,439.7,279.6z M449.6,311l-16.1,15.1l-35.9-38.1l16.1-15.1L449.6,311z
		 M416.4,283.6c0-0.3-0.1-0.8-0.4-1l-1.7-1.8c-0.5-0.5-1.4-0.5-2-0.1l-1,0.9c-0.5,0.5-0.5,1.4-0.1,2l1.7,1.8c0.2,0.2,0.7,0.4,1,0.4
		s2-1.3,2-1.3C416.3,284.4,416.4,283.9,416.4,283.6z M441.3,311.5c0.5-0.5,0.5-1.4,0.1-2l-20.1-21.4c-0.2-0.3-0.5-0.4-1-0.4
		c-0.3,0-0.8,0.1-1,0.3l-1,0.9c-0.5,0.5-0.5,1.4-0.1,2l20.1,21.4c0.2,0.2,0.7,0.4,1,0.4s0.8-0.1,1-0.3L441.3,311.5z M395.9,286.4
		l16.1-15.1l-4.1-4.5l-16.1,15.2L395.9,286.4z M384.6,274.4c-0.9-1-1.3-2.2-1.3-3.5c0-1.3,0.5-2.5,1.5-3.4l9.1-8.6
		c2-1.8,5-1.7,6.8,0.2l5.7,6l-16.1,15.1L384.6,274.4z M387.5,271.1l2.9,3.2l9.8-9.3l-2.9-3.2L387.5,271.1z M457.7,332.7
		c0.3,0.9,0,1.8-0.7,2.5c-0.7,0.7-1.6,0.8-2.5,0.4l-19.1-7.3l16.1-15.1L457.7,332.7z M452.6,326.2l-2.4-7.7l-9.4,8.8l7.5,2.8
		L452.6,326.2z"/>
</g>
</svg>
