<?xml version="1.0" encoding="utf-8"?>
<!-- Generator: Adobe Illustrator 18.1.1, SVG Export Plug-In . SVG Version: 6.00 Build 0)  -->
<svg version="1.1" id="Capa_1" xmlns="http://www.w3.org/2000/svg" xmlns:xlink="http://www.w3.org/1999/xlink" x="0px" y="0px"
	 viewBox="370.9 247.6 100 100" enable-background="new 370.9 247.6 100 100" xml:space="preserve">
<g>
	<g>
		<g>
			<path fill="#FFA001" d="M452.5,257.1h-4.4v-1.4c0-0.8-0.7-1.5-1.5-1.5s-1.5,0.7-1.5,1.5v1.5h-2.9v-1.5c0-0.8-0.7-1.5-1.5-1.5
				s-1.5,0.7-1.5,1.5v1.5h-2.9v-1.5c0-0.8-0.7-1.5-1.5-1.5s-1.5,0.7-1.5,1.5v1.5h-2.9v-1.5c0-0.8-0.7-1.5-1.5-1.5s-1.5,0.7-1.5,1.5
				v1.5h-20.6v-1.5c0-0.8-0.7-1.5-1.5-1.5s-1.5,0.7-1.5,1.5v1.5h-2.9v-1.5c0-0.8-0.7-1.5-1.5-1.5s-1.5,0.7-1.5,1.5v1.5h-2.9v-1.5
				c0-0.8-0.7-1.5-1.5-1.5s-1.5,0.7-1.5,1.5v1.5h-2.9v-1.5c0-0.8-0.7-1.5-1.5-1.5s-1.5,0.7-1.5,1.5v1.5h-4.4c-0.8,0-1.5,0.7-1.5,1.5
				v69.2c0,0.8,0.7,1.5,1.5,1.5h42.8c0.8,0,1.5-0.7,1.5-1.5v-0.1v-0.2c0-0.5-0.1-0.8-0.1-1.2c0-1.5,0.2-2.9,0.6-4.4s0.8-2.8,1.5-4
				c0.1-0.1,0.1-0.2,0.2-0.3c0.2-0.3,0.5-0.8,0.7-1.1c0.1-0.1,0.1-0.2,0.2-0.3c0.2-0.3,0.5-0.8,0.8-1.1c0-0.1,0.1-0.1,0.1-0.2
				c0.3-0.3,0.6-0.8,0.9-1.1l0,0c2.1-2.4,4.7-4.1,7.7-5.3l0.2-0.1c0.5-0.1,0.8-0.2,1.2-0.3c0.2,0,0.3-0.1,0.6-0.1
				c0.3-0.1,0.7-0.1,1-0.2c0.3,0,0.6-0.1,0.9-0.1c0.2,0,0.6-0.1,0.8-0.1c0.6,0,1.2-0.1,1.8-0.1c0.5,0,0.8,0,1.2,0.1h0.2l0,0
				c1.9,0.1,3.7,0.6,5.4,1.2c0.8,0.3,1.6-0.1,1.9-0.8c0.1-0.2,0.1-0.3,0.1-0.6v-48.6C454,257.6,453.4,257.1,452.5,257.1z
				 M426.1,315.1c0,0.1-0.1,0.1-0.1,0.2c-0.2,0.3-0.5,0.8-0.6,1.1c-0.1,0.2-0.2,0.5-0.3,0.7c-0.1,0.3-0.3,0.7-0.5,1.1v0.1v-6.8h4.1
				C427.8,312.6,426.9,313.9,426.1,315.1z M433.4,307.6c-0.6,0.3-1,0.7-1.5,1l0,0h-7.4v-8.8h8.8V307.6z M433.4,296.7h-8.8v-8.8h8.8
				V296.7z M433.4,285h-8.8v-8.8h8.8V285z M445.2,288v8.8h-8.8V288H445.2z M436.4,285v-8.8h8.8v8.8H436.4z M445.2,304.1
				c-0.7,0-1.3,0-2,0.1c-0.3,0-0.6,0.1-0.9,0.1s-0.7,0.1-1.1,0.1c-0.3,0.1-0.8,0.1-1.1,0.2c-0.2,0-0.5,0.1-0.7,0.2
				c-0.5,0.1-0.9,0.2-1.3,0.5c0,0-0.1,0-0.1,0.1c-0.6,0.2-1.1,0.3-1.6,0.6v-6.2h8.8L445.2,304.1L445.2,304.1L445.2,304.1z
				 M451.1,304.9c-1-0.2-1.9-0.5-2.9-0.6v-29.7c0-0.8-0.7-1.5-1.5-1.5h-58.9c-0.8,0-1.5,0.7-1.5,1.5v47.2c0,0.8,0.7,1.5,1.5,1.5
				h35.5c-0.1,1-0.2,1.9-0.2,2.9h-39.8v-55.9H451v34.6H451.1L451.1,304.9z M412.9,308.5v-8.8h8.8v8.8H412.9z M421.6,311.5v8.8h-8.8
				v-8.8H421.6z M412.9,296.7v-8.8h8.8v8.8H412.9z M412.9,285v-8.8h8.8v8.8H412.9z M401,308.5v-8.8h8.8v8.8H401z M409.9,311.5v8.8
				H401v-8.8H409.9z M401,296.7v-8.8h8.8v8.8H401z M401,285v-8.8h8.8v8.8H401z M389.3,308.5v-8.8h8.8v8.8H389.3z M398.1,311.5v8.8
				h-8.8v-8.8H398.1z M389.3,296.7v-8.8h8.8v8.8H389.3z M389.3,285v-8.8h8.8v8.8H389.3z M451.1,267.4h-67.6V260h2.9v1.5
				c0,0.8,0.7,1.5,1.5,1.5s1.5-0.7,1.5-1.5V260h2.9v1.5c0,0.8,0.7,1.5,1.5,1.5s1.5-0.7,1.5-1.5V260h2.9v1.5c0,0.8,0.7,1.5,1.5,1.5
				s1.5-0.7,1.5-1.5V260h2.9v1.5c0,0.8,0.7,1.5,1.5,1.5s1.5-0.7,1.5-1.5V260h20.6v1.5c0,0.8,0.7,1.5,1.5,1.5c0.8,0,1.5-0.7,1.5-1.5
				V260h2.9v1.5c0,0.8,0.7,1.5,1.5,1.5s1.5-0.7,1.5-1.5V260h2.9v1.5c0,0.8,0.7,1.5,1.5,1.5s1.5-0.7,1.5-1.5V260h2.9v1.5
				c0,0.8,0.7,1.5,1.5,1.5s1.5-0.7,1.5-1.5V260h2.9v7.4H451.1z"/>
		</g>
	</g>
	<g>
		<g>
			<g>
				<path fill="#FFA001" d="M444.7,308.6c-9,0-16.2,7.3-16.2,16.2s7.3,16.2,16.2,16.2c9,0,16.2-7.3,16.2-16.2
					C460.8,315.9,453.7,308.6,444.7,308.6z M444.7,338.1c-7.3,0-13.2-5.9-13.2-13.2s5.9-13.2,13.2-13.2c7.3,0,13.2,5.9,13.2,13.2
					S452,338.1,444.7,338.1z"/>
			</g>
		</g>
		<g>
			<g>
				<path fill="#FFA001" d="M448.7,329.2c0,0.3-1.5,1.1-4.1,1.1s-4.1-0.9-4.1-1.1v-3l-1.6-0.9v3.8c0,1.8,2.8,2.7,5.7,2.7
					c2.8,0,5.7-0.9,5.7-2.7v-3.8l-1.6,0.9C448.7,326.2,448.7,329.2,448.7,329.2z"/>
				<path fill="#FFA001" d="M454,330l-0.9-2.9c0.2-0.2,0.3-0.5,0.3-0.8c0-0.5-0.3-0.8-0.7-0.9v-2.8l0.7-0.3c0.2-0.1,0.5-0.5,0.5-0.7
					s-0.1-0.6-0.5-0.7l-8.5-4.6c-0.2-0.1-0.6-0.1-0.8,0l-8.5,4.6c-0.2,0.1-0.5,0.5-0.5,0.7s0.1,0.6,0.5,0.7l8.5,4.6
					c0.1,0.1,0.2,0.1,0.3,0.1c0.1,0,0.2,0,0.3-0.1l7.2-3.9v2.4c-0.3,0.1-0.7,0.6-0.7,0.9c0,0.3,0.1,0.6,0.3,0.8l-0.9,2.9
					c-0.1,0.2,0,0.6,0.1,0.8c0.1,0.2,0.5,0.3,0.7,0.3h1.6c0.2,0,0.6-0.1,0.7-0.3C454,330.6,454.1,330.3,454,330z M444.6,325.3
					l-6.8-3.7l6.8-3.7l6.8,3.7L444.6,325.3z"/>
			</g>
		</g>
	</g>
</g>
</svg>
