<?xml version="1.0" encoding="utf-8"?>
<!-- Generator: Adobe Illustrator 18.1.1, SVG Export Plug-In . SVG Version: 6.00 Build 0)  -->
<svg version="1.1" id="light" xmlns="http://www.w3.org/2000/svg" xmlns:xlink="http://www.w3.org/1999/xlink" x="0px" y="0px"
	 viewBox="42 248.3 100 100" enable-background="new 42 248.3 100 100" xml:space="preserve">
<g>
	<path fill="#FFFFFF" d="M131.6,274.5H52.4c-2.4,0-4.4-1.3-4.4-3s2-3,4.4-3h79.2c2.4,0,4.4,1.3,4.4,3S134,274.5,131.6,274.5z"/>
	<path fill="#FFFFFF" d="M131.6,301.3H52.4c-2.4,0-4.4-1.3-4.4-3s2-3,4.4-3h79.2c2.4,0,4.4,1.3,4.4,3S134,301.3,131.6,301.3z"/>
	<path fill="#FFFFFF" d="M131.6,328H52.4c-2.4,0-4.4-1.3-4.4-3c0-1.6,2-3,4.4-3h79.2c2.4,0,4.4,1.3,4.4,3
		C136,326.7,134,328,131.6,328z"/>
</g>
</svg>
