<?xml version="1.0" encoding="utf-8"?>
<!-- Generator: Adobe Illustrator 18.1.1, SVG Export Plug-In . SVG Version: 6.00 Build 0)  -->
<svg version="1.1" id="Capa_1" xmlns="http://www.w3.org/2000/svg" xmlns:xlink="http://www.w3.org/1999/xlink" x="0px" y="0px"
	 viewBox="370.9 247.6 100 100" enable-background="new 370.9 247.6 100 100" xml:space="preserve">
<g>
	<g>
		<g>
			<circle fill="#FFA901" cx="401.7" cy="262.9" r="7"/>
		</g>
	</g>
	<g>
		<g>
			<path fill="#FFA901" d="M423,300.9c0-0.1-5.5-15.1-7.9-22c-1.6-4.5-4.1-6.7-7.8-6.7c-0.2,0-0.3,0-0.6,0c0.9,0.9,1.6,1.9,1.9,3.2
				c1.7,0.6,3,2.3,3,4.2v10c2.4,6.6,4.9,13.6,4.9,13.7c0.7,1.7,2.5,2.6,4.3,1.9C422.8,304.5,423.7,302.6,423,300.9z"/>
		</g>
	</g>
	<g>
		<g>
			<path fill="#FFA901" d="M395.8,272.1c-3.5,0-6.2,2.3-7.8,6.7c-2.4,7-7.9,21.9-7.9,22c-0.7,1.7,0.2,3.7,1.9,4.3
				c1.7,0.7,3.7-0.2,4.3-1.9c0-0.1,2.6-7.1,4.9-13.7v-10c0-1.9,1.3-3.5,3-4.2c0.3-1.3,1-2.3,1.9-3.2
				C396.2,272.1,396.1,272.1,395.8,272.1z"/>
		</g>
	</g>
	<g>
		<g>
			<path fill="#FFA901" d="M414.9,309.6c-1.4-7.2-2.4-12.2-3.1-15.8v0.8c0,2.4-1.9,4.5-4.5,4.5h-11.5c-2.4,0-4.5-1.9-4.5-4.5v-0.8
				c-0.7,3.5-1.7,8.5-3.1,15.8c-0.2,1.1,0.7,2.2,1.8,2.2c0.7,0,1.6,0,2.5,0V336c0,2.2,1.8,4,4,4c2.2,0,4-1.8,4-4v-24.2
				c0.6,0,1.1,0,1.7,0V336c0,2.2,1.8,4,4,4c2.2,0,4-1.8,4-4v-24.2c0.9,0,1.8,0,2.5,0C414.2,311.9,415.1,310.7,414.9,309.6z"/>
		</g>
	</g>
	<g>
		<g>
			<path fill="#FFA901" d="M407.4,277.4h-0.7c0-0.9-0.2-1.7-0.7-2.5c-0.9-1.5-2.5-2.5-4.3-2.5s-3.5,1-4.3,2.5
				c-0.5,0.7-0.7,1.6-0.7,2.5h-0.7c-1,0-1.9,0.9-1.9,1.9v15.2c0,1,0.9,1.9,1.9,1.9h11.5c1,0,1.9-0.9,1.9-1.9v-15.2
				C409.3,278.3,408.5,277.4,407.4,277.4z M401.1,274.9h1.1c1.1,0.2,1.9,1.3,1.9,2.5H399C399,276.3,400,275.3,401.1,274.9z
				 M404.4,291.8H399c-0.9,0-1.7-0.8-1.7-1.7c0-0.9,0.8-1.7,1.7-1.7h5.4c0.9,0,1.7,0.8,1.7,1.7C406,291.1,405.3,291.8,404.4,291.8z"
				/>
		</g>
	</g>
	<g>
		<g>
			<circle fill="#FFA901" cx="444.7" cy="262.3" r="7"/>
		</g>
	</g>
	<g>
		<g>
			<path fill="#FFA901" d="M461.8,279.4c0-4.3-3.7-7.9-8.1-7.9h-4.3c1.1,0.9,2.1,2.2,2.5,3.7l0,0c1.8,0.7,3.2,2.4,3.2,4.6v24.4
				c0,1.8,1.5,3.4,3.4,3.4c1.8,0,3.4-1.5,3.4-3.4v-24.7C461.8,279.4,461.8,279.4,461.8,279.4z"/>
		</g>
	</g>
	<g>
		<g>
			<path fill="#FFA901" d="M450.4,299h-11.5l0,0c-1.3,0-2.4-0.6-3.2-1.4c0,0,0,0.8,0,38.3c0,2.3,1.8,4,4,4c2.2,0,4-1.8,4-4v-32.3
				h1.7V336c0,2.3,1.8,4,4,4s4-1.8,4-4c0-36.6,0-38.3,0-38.3C452.8,298.4,451.7,299,450.4,299z"/>
		</g>
	</g>
	<g>
		<g>
			<path fill="#FFA901" d="M435.6,271.4c-4.5,0-8.1,3.5-8.1,7.9l0,0V304c0,1.8,1.5,3.4,3.4,3.4c1.8,0,3.4-1.5,3.4-3.4v-24.1
				c-0.2-2.3,1.1-4.3,3.2-4.9c0.5-1.5,1.4-2.7,2.5-3.7H435.6L435.6,271.4L435.6,271.4z"/>
		</g>
	</g>
	<g>
		<g>
			<path fill="#FFA901" d="M450.4,277.3h-0.7c0-0.9-0.2-1.7-0.7-2.5c-0.9-1.5-2.5-2.5-4.3-2.5c-1.8,0-3.5,1-4.3,2.5
				c-0.5,0.7-0.7,1.6-0.7,2.5H439c-1,0-1.9,0.9-1.9,1.9v15.2c0,1,0.9,1.9,1.9,1.9h11.5c1,0,1.9-0.9,1.9-1.9v-15.2
				C452.3,278.2,451.4,277.3,450.4,277.3z M444,274.8h1.1c1.1,0.2,1.9,1.3,1.9,2.5h-5.1C442.1,276.2,443,275.2,444,274.8z
				 M447.3,291.7h-5.4c-0.9,0-1.7-0.8-1.7-1.7s0.8-1.7,1.7-1.7h5.4c0.9,0,1.7,0.8,1.7,1.7C449,290.9,448.2,291.7,447.3,291.7z"/>
		</g>
	</g>
</g>
</svg>
